# xmcd CD database file
#
# Track frame offsets:
#	150
#	15478
#	29771
#	44594
#	60562
#	73999
#	87496
#	101568
#	115038
#	125843
#	136617
#	149090
#
# Disc length: 2131 seconds
#
# Revision: 0
# Processed by: cddbd v1.4PL0 Copyright (c) Steve Scherf et al.
# Submitted via: CDex 1.40Release
#
DISCID=b508510c
DTITLE=Kenny Rogers - For The Good Times
DYEAR=2002
DGENRE=Country
TTITLE0=For The Good Times
TTITLE1=It'sRaining In My MInd
TTITLE2=After All (I LIve My Life)
TTITLE3=Tulsa Turnaround
TTITLE4=It;s Gonna Be Better
TTITLE5=A Stranger In My Place
TTITLE6=Molly
TTITLE7=But You Know That I Love You
TTITLE8=She Even Woke Me Up To Say Goodbye
TTITLE9=Trying Just As Hard
TTITLE10=Shadow In The Corner Of Your Mind
TTITLE11=We All Got To Help Each Other
EXTD=YEAR: 2002 ID3G: 2
EXTT0=
EXTT1=
EXTT2=
EXTT3=
EXTT4=
EXTT5=
EXTT6=
EXTT7=
EXTT8=
EXTT9=
EXTT10=
EXTT11=
PLAYORDER=
